<?xml version="1.0" encoding="UTF-8"?>
<svg id="Layer_1" xmlns="http://www.w3.org/2000/svg" version="1.1" viewBox="0 0 561.15 300">
  <!-- Generator: Adobe Illustrator 29.7.1, SVG Export Plug-In . SVG Version: 2.1.1 Build 8)  -->
  <g>
    <g>
      <path d="M260,80.04h20.91l16.31,41.52,16.31-41.52h20.98v61.27h-14.78v-38.53l-15.32,38.53h-14.55l-15.17-38.29v38.29h-14.7v-61.27h.02-.02s0,0,0,0Z"/>
      <path d="M356.25,138.91c-3.96-2.17-7.04-5.21-9.22-9.11-2.2-3.91-3.28-8.38-3.28-13.44s1.1-9.51,3.28-13.39c2.2-3.88,5.27-6.9,9.22-9.09,3.96-2.17,8.49-3.25,13.6-3.25s9.64,1.09,13.6,3.25,7.02,5.21,9.22,9.09,3.28,8.35,3.28,13.39-1.1,9.53-3.28,13.44c-2.2,3.91-5.29,6.95-9.22,9.11-3.96,2.17-8.49,3.25-13.6,3.25s-9.64-1.09-13.6-3.25ZM361.63,125.05c2.09,2.23,4.83,3.33,8.2,3.33s6.11-1.1,8.2-3.33,3.15-5.13,3.15-8.69-1.06-6.39-3.17-8.59-4.85-3.28-8.17-3.28-6.05,1.1-8.17,3.28c-2.12,2.2-3.17,5.05-3.17,8.59s1.05,6.47,3.15,8.69h-.02,0Z"/>
      <path d="M414.52,138.96c-3.91-2.15-6.97-5.16-9.16-9.04s-3.28-8.35-3.28-13.39,1.1-9.53,3.28-13.44c2.2-3.91,5.25-6.95,9.16-9.11s8.36-3.25,13.36-3.25c4.64,0,8.78.95,12.42,2.83s6.57,4.51,8.85,7.88c2.28,3.36,3.77,7.23,4.48,11.56h-14.86c-.67-2.4-1.96-4.4-3.91-5.98s-4.24-2.36-6.89-2.36c-3.22,0-5.87,1.1-7.96,3.33s-3.15,5.06-3.15,8.54c0,2.31.48,4.37,1.45,6.17s2.29,3.21,3.99,4.21c1.68,1,3.57,1.49,5.67,1.49,2.4,0,4.53-.63,6.39-1.87s3.21-2.94,4.02-5.09h15.16c-.87,4.14-2.44,7.76-4.75,10.87-2.29,3.12-5.24,5.55-8.8,7.28s-7.63,2.6-12.18,2.6c-4.95,0-9.38-1.07-13.29-3.21v-.02h0Z"/>
      <path d="M462.9,80.04h14.94v29.57l14.62-18.07h17.15l-19.07,23.58,20.61,26.2h-17.39l-15.93-20.14v20.14h-14.94v-61.29h.01Z"/>
    </g>
    <g>
      <path d="M270.7,217.21c-3.43-1.81-6.06-4.35-7.93-7.62s-2.78-6.99-2.78-11.19h9.27c0,4.03,1.2,7.29,3.59,9.77,2.4,2.48,5.64,3.72,9.72,3.72,3.22,0,5.86-.79,7.93-2.36,2.07-1.59,3.1-3.79,3.1-6.59,0-1.94-.52-3.56-1.52-4.83-1.03-1.28-2.35-2.33-3.99-3.17s-4.03-1.87-7.2-3.1c-4.71-1.84-8.32-3.43-10.87-4.79-2.56-1.36-4.63-3.1-6.2-5.25-1.59-2.15-2.36-4.87-2.36-8.2s.89-6.47,2.65-8.96c1.76-2.51,4.13-4.41,7.09-5.71,2.96-1.31,6.2-1.94,9.72-1.94,3.99,0,7.46.83,10.42,2.49,2.96,1.67,5.22,3.94,6.78,6.86s2.33,6.26,2.33,10.03h-8.96c0-3.36-1-6.11-2.99-8.2s-4.59-3.15-7.81-3.15c-2.86,0-5.24.81-7.12,2.41s-2.83,3.61-2.83,6.02c0,1.84.56,3.36,1.68,4.59s2.59,2.25,4.41,3.07c1.81.83,4.58,1.91,8.3,3.28,4.03,1.48,7.29,2.94,9.77,4.37,2.48,1.44,4.43,3.24,5.86,5.44s2.15,4.95,2.15,8.27c0,3.63-.87,6.76-2.6,9.38-1.73,2.64-4.14,4.64-7.2,6.02-3.07,1.39-6.55,2.07-10.5,2.07-4.48,0-8.44-.9-11.87-2.73l-.03-.02h0v.02h-.01Z"/>
      <path d="M312.3,157.82h8.96v19.15c.97-2.25,2.82-4.22,5.56-5.94,2.73-1.71,5.98-2.57,9.77-2.57s7.46.92,10.61,2.75,5.63,4.43,7.43,7.78c1.81,3.35,2.73,7.17,2.73,11.45v28.65h-8.96v-28.73c0-4.13-1.25-7.49-3.75-10.08-2.51-2.59-5.78-3.86-9.8-3.86s-7.31,1.29-9.8,3.86c-2.51,2.59-3.75,5.94-3.75,10.08v28.73h-8.96v-61.27h-.04Z"/>
      <path d="M376.95,216.68c-3.72-2.17-6.65-5.22-8.77-9.16-2.12-3.93-3.17-8.4-3.17-13.39s1.06-9.44,3.17-13.33c2.12-3.88,5.05-6.9,8.77-9.09,3.72-2.17,7.88-3.25,12.47-3.25,3.83,0,7.29.76,10.37,2.31,3.09,1.52,5.63,3.67,7.62,6.44v-7.88h8.96v49.79h-8.96v-7.96c-1.99,2.8-4.53,4.98-7.62,6.52s-6.55,2.31-10.37,2.31c-4.59,0-8.75-1.09-12.47-3.25v-.02h0v-.04ZM376.37,203.4c1.41,2.71,3.38,4.8,5.94,6.28s5.44,2.23,8.67,2.23,6.17-.73,8.69-2.23c2.52-1.48,4.5-3.57,5.94-6.28,1.44-2.71,2.15-5.79,2.15-9.27s-.71-6.55-2.15-9.19-3.41-4.72-5.94-6.2c-2.52-1.48-5.42-2.23-8.69-2.23s-6.11.73-8.67,2.23c-2.56,1.48-4.53,3.56-5.94,6.2-1.41,2.67-2.1,5.71-2.1,9.19s.7,6.55,2.1,9.27Z"/>
      <path d="M428.64,169.31h8.96v8.12c1.03-2.25,2.77-4.27,5.25-6.05,2.48-1.79,5.42-2.75,8.85-2.91v9.04c-4.24,0-7.65,1.34-10.22,4.02-2.59,2.68-3.86,6.2-3.86,10.53v27.04h-8.96v-49.79h-.02Z"/>
      <path d="M459.36,157.82h8.96v32.01l22.45-20.53h11.87l-25.89,23.58,27.42,26.2h-11.95l-23.89-22.74v22.74h-8.96v-61.27h-.01Z"/>
    </g>
  </g>
  <g>
    <path d="M154.01,177.87c-2.78-7.23-8.02-12.83-14.06-17.76-5.05-4.12-10.33-8.02-14.95-12.52-9.45-9.15-15.26-20.18-16.67-33.06-1.65-15.02,3.3-28.17,13.52-39.52,3.36-3.74,7.38-6.97,11.12-10.45h-1.14c-13.14,0-26.27-.05-39.43.02-3.9.02-7.67.52-11.24,1.45.54.74,1.03,1.45,1.45,2.07,2.66,4.05,3.59,7.58,3.66,10.88s-.47,15.56-.47,15.56c0,0,.98.47.88,1.48-.18,1.89-1.06,3.07-1.06,3.07-1.04,10.81-.31,19.25-.1,20.93s.38,2.71.63,2.72c.25.03.54-.21.55-.46.03-.25-.22-.28-.13-1.29.1-1.01.88-1.18,1.39-1.13,3.02.28,6.33.1,9.31-.38s5.16-1.48,5.66-1.43.6.44.55.95c-.26,2.76-3.07,5.55-5.7,7.7-2.61,2.15-6.5,2.94-7.64,2.96s-2.35.78-3.56,1.31c-.25,2.64,1.96,7.42,2.97,10.06,1.03,2.64,1.55,7.64,1.06,12.8s-2.32,5.61-3.32,5.52c0,0-6.73-.7-11.59-9.6s-5.5-15.56-5.5-15.56c-5.13.54-7.89-1.01-10.19-2.35-2.28-1.35-3.12-3.22-3.07-3.85.06-.63.7-.69,1.47-.75,7.43-.82,10.39-2.56,11.35-3.23.41-4.28,1.06-9.67,2.4-14.62s3.08-9.73,4.24-12.67c1.16-2.94,3.28-9.19,3.72-13.73.42-4.52-.08-7.25-.33-9.94s.16-4.29.16-4.29c0,0-.55-.88-1.27-2.01-16.79,5.37-28.62,20.31-28.65,38.29-.03,24.64-.03,49.25-.03,73.88,2.66-1.27,5.73-2.68,8.02-3.51,4.56-1.68,8.19-1.81,11.43-1.13s15.06,3.93,15.06,3.93c0,0,.67-.83,1.63-.52,1.79.6,2.75,1.71,2.75,1.71,10.32,3.43,18.71,4.6,20.37,4.77,1.68.16,2.72.23,2.79,0s-.08-.57-.31-.64-.31.16-1.27-.16-.96-1.11-.8-1.6c.96-2.87,1.5-6.14,1.7-9.15s-.28-5.34-.13-5.83.57-.49,1.04-.31c2.64.88,4.72,4.23,6.24,7.26s1.42,6.99,1.16,8.11c-.23,1.11.23,2.48.49,3.76,2.51.83,7.67-.25,10.47-.66s7.8.19,12.7,1.83c4.92,1.63,4.95,3.51,4.64,4.46,0,0-2.19,6.4-11.95,9.15s-16.39,1.89-16.39,1.89c-.63,5.11-2.75,7.46-4.57,9.4-1.84,1.91-3.84,2.33-4.44,2.12s-.52-.83-.41-1.6c.87-7.43-.18-10.71-.62-11.79-4.07-1.35-9.19-3.17-13.71-5.61s-8.79-5.17-11.4-6.98c-2.6-1.79-8.24-5.27-12.54-6.69s-7.07-1.54-9.75-1.9-4.15-1.11-4.15-1.11c0,0-4.67,1.65-6.95,2.48-.3.11-.67.26-1.1.46v15.3c.03,19.32,15.2,36.05,35.31,38.55,6.04.75,12.25.6,18.36.6,15.94-.03,29.7-5.58,40.73-16.31,12.01-11.66,15.59-25.62,9.55-41.26v.05l.04-.05.02-.07h0Z"/>
    <path d="M121.91,122.13c2.78,7.23,8.02,12.83,14.06,17.76,5.05,4.12,10.33,8.02,14.95,12.52,9.45,9.15,15.26,20.18,16.67,33.06,1.65,15.02-3.3,28.17-13.52,39.52-3.36,3.74-7.38,6.97-11.12,10.45h1.14c13.14,0,26.27.05,39.43-.02,3.9-.02,7.67-.52,11.24-1.45-.54-.74-1.03-1.45-1.45-2.07-2.66-4.05-3.59-7.58-3.66-10.88-.06-3.3.47-15.56.47-15.56,0,0-.98-.47-.88-1.48.18-1.89,1.06-3.07,1.06-3.07,1.04-10.81.31-19.25.1-20.93s-.38-2.71-.63-2.72c-.25-.03-.54.21-.55.46-.03.25.22.28.13,1.29-.1,1.01-.88,1.18-1.39,1.13-3.02-.28-6.33-.1-9.31.38-2.97.47-5.16,1.48-5.66,1.43s-.6-.44-.55-.95c.26-2.76,3.07-5.55,5.7-7.7,2.61-2.15,6.5-2.94,7.64-2.96s2.35-.78,3.56-1.31c.25-2.64-1.96-7.42-2.97-10.06-1.03-2.64-1.55-7.64-1.06-12.8s2.32-5.61,3.32-5.52c0,0,6.73.7,11.59,9.6s5.5,15.56,5.5,15.56c5.13-.54,7.89,1.01,10.19,2.35,2.28,1.35,3.12,3.22,3.07,3.85-.06.63-.7.69-1.47.75-7.43.82-10.39,2.56-11.35,3.23-.41,4.28-1.06,9.67-2.4,14.62s-3.08,9.73-4.24,12.67-3.28,9.19-3.72,13.73c-.42,4.52.08,7.25.33,9.94s-.16,4.29-.16,4.29c0,0,.55.88,1.27,2.01,16.79-5.37,28.62-20.31,28.65-38.29.03-24.64.03-49.25.03-73.88-2.66,1.27-5.73,2.68-8.02,3.51-4.56,1.68-8.19,1.81-11.43,1.13s-15.06-3.93-15.06-3.93c0,0-.67.83-1.63.52-1.79-.6-2.75-1.71-2.75-1.71-10.32-3.43-18.71-4.6-20.37-4.77-1.68-.16-2.72-.23-2.79,0s.08.57.31.64.31-.16,1.27.16c.96.31.96,1.11.8,1.6-.96,2.87-1.5,6.14-1.7,9.15s.28,5.34.13,5.83c-.16.49-.57.49-1.04.31-2.64-.88-4.72-4.23-6.24-7.26s-1.42-6.99-1.16-8.11c.23-1.11-.23-2.48-.49-3.76-2.51-.83-7.67.25-10.47.66s-7.8-.19-12.7-1.83c-4.92-1.63-4.95-3.51-4.64-4.46,0,0,2.19-6.4,11.95-9.15s16.39-1.89,16.39-1.89c.63-5.11,2.75-7.46,4.57-9.4,1.84-1.91,3.84-2.33,4.44-2.12s.52.83.41,1.6c-.87,7.43.18,10.71.62,11.79,4.07,1.35,9.19,3.17,13.71,5.61s8.79,5.17,11.4,6.98c2.6,1.79,8.24,5.27,12.54,6.7,4.33,1.43,7.07,1.54,9.75,1.9s4.15,1.11,4.15,1.11c0,0,4.67-1.65,6.95-2.48.3-.11.67-.26,1.1-.46v-15.3c-.03-19.32-15.2-36.05-35.31-38.55-6.04-.75-12.25-.6-18.36-.6-15.94.03-29.7,5.58-40.73,16.31-12.01,11.66-15.59,25.62-9.55,41.26v-.05l-.04.04-.02.07h0Z"/>
  </g>
</svg>