<?xml version="1.0" encoding="UTF-8"?>
<svg id="Layer_1" xmlns="http://www.w3.org/2000/svg" version="1.1" viewBox="0 0 725.77 300">
  <!-- Generator: Adobe Illustrator 29.7.1, SVG Export Plug-In . SVG Version: 2.1.1 Build 8)  -->
  <g>
    <path d="M147.73,53.12c-.86-.45-1.69-.96-2.54-1.44-.83-.47-.93-.45-1.38.5-2.22,4.72-4.84,9.25-7.6,13.69-2.47,3.98-5.16,7.85-7.81,11.73-1.42,2.08-3.16,3.91-5,5.64-.7.65-1.1.76-1.83.28-.77-.51-1.54-1.05-2.15-1.74-3.18-3.56-5.68-7.65-8.06-11.82-1.72-2.99-3.3-6.06-4.88-9.13-1.7-3.28-3.34-6.59-4.98-9.9-.1-.19-.1-.53,0-.72.74-1.27,1.57-2.5,2.29-3.78.77-1.36,1.18-2.85,1.01-4.29-.24-2.02-.7-4.01-2.25-5.39-.18-.16-.49-.21-.75-.24-.33-.04-.7.06-1.02-.02-.56-.12-1.1-.33-1.64-.5-1.28-.42-2.59-.39-3.91.28-1.83.91-3.35,2.19-4.33,4.03-.83,1.57-1.47,3.2-1.13,4.92.15.78.34,1.57.6,2.3.19.52.46,1.04.83,1.44,1.35,1.44,3.1,2.3,5.01,2.88.4.12.62.32.69.74.36,2.13.79,4.24,1.1,6.38.2,1.37.21,2.77.33,4.16.12,1.25.33,2.48.41,3.73.19,2.85.36,5.7.46,8.56.1,2.83.25,5.66.11,8.5-.12,2.59-.56,5.2-.94,7.8-.11.76-.31,1.75-.83,2.18-.62.53-1.66.8-2.46.78-1.15-.03-2.27-.4-3.37-.69-3.04-.8-5.92-1.9-8.59-3.46-3.46-2.02-6.97-3.95-10.43-5.97-1.83-1.07-3.58-2.25-5.36-3.39-1.03-.66-2.05-1.35-3.09-1.99-.51-.32-.5-.67-.21-1.23.73-1.42,1.16-2.89,1.06-4.42-.07-1.14-.2-2.28-.34-3.41-.02-.2-.14-.43-.3-.54-2.62-1.81-5.38-2.89-8.91-1.38-1.86.8-3.42,1.77-4.41,3.61-1.03,1.92-1.46,3.88-.9,5.86.65,2.27,2.08,3.89,4.18,4.87,1.19.56,2.45.81,3.84.15.49-.23,1.04-.31,1.52-.56.9-.47,1.47-.2,2.01.46,1.26,1.55,2.6,3.04,3.87,4.59,1.29,1.56,2.6,3.11,3.78,4.76,1.49,2.08,2.86,4.25,4.27,6.4.97,1.49,2.01,2.94,2.8,4.53.65,1.31.98,2.81,1.44,4.24.15.48,1.01,1.2,1.39,1.03.75-.34,1.14.07,1.58.46.17.15.33.29.5.44.07-.03.13-.06.2-.1-.03-.69-.07-1.38-.09-2.07-.05-1.96-.32-3.9-1.22-5.54-1.52-2.75-3.22-5.39-4.87-8.06-.39-.63-.86-1.21-1.29-1.81.04-.07.07-.13.11-.19.25.05.54.05.76.17,1.3.69,2.57,1.43,3.88,2.1,1.79.92,3.55,1.91,5.41,2.66,2.24.9,4.57,1.63,6.9,2.33,1.64.49,3.32.83,5.13.64,2.64-.28,4.64-1.85,5.56-4.42.82-2.3,1.24-4.64,1.38-7,.16-2.64.32-5.29.36-7.93.03-2.22-.08-4.44-.17-6.65-.06-1.46-.19-2.92-.3-4.37-.08-1.12-.2-2.23-.28-3.35-.03-.39.02-.8.04-1.19.08,0,.15-.02.23-.03.11.18.22.36.32.55.94,1.78,1.83,3.6,2.84,5.34,1.42,2.44,2.86,4.86,4.41,7.2,1.44,2.18,3.04,4.24,4.57,6.35,1.24,1.7,2.81,3.03,4.68,4,1.03.54,2.08.89,3.32.21.74-.4,1.62-.59,2.26-1.11,2.08-1.68,3.86-3.66,5.47-5.79,3.55-4.7,6.64-9.68,9.67-14.69.15-.24.36-.45.54-.68.07.67-.02,1.23-.04,1.79-.12,3.8-.22,7.6-.36,11.4-.04,1.08.21,2.01.92,2.74,1.03,1.04,2.07,2.07,3.13,3.07.15.14.46.13.8.21-.04-.53-.01-.84-.09-1.11-.65-2.17-.71-4.49-.78-6.78-.1-3.09-.1-6.22.44-9.36.42-2.45.76-4.92,1.25-7.36.41-2.07.98-4.13,1.5-6.18.1-.41.09-.68-.29-.89ZM60.17,77.77c-.42.46-1.15.66-1.75.95-1.16.56-2.13.46-3.2-.18-.92-.55-.92-1.42-1.27-2.21-.63-1.43.26-2.58,1.03-3.74.16-.24.54-.37.83-.5.41-.18.84-.31,1.26-.45,1.63-.91,3.02-.54,4.26.41.25.19.48.55.49.86.09,1.76-.38,3.45-1.65,4.85ZM99.91,46.67c-.11.2-.36.37-.57.47-.34.16-.7.26-1.06.39-1.73.61-3.16.24-4.13-1.06-.73-.97-.77-3.23.02-4.4.46-.69.99-1.38,1.61-1.91.64-.54,1.49-.75,2.25-.51.96.31,1.87.73,2.78,1.13.15.06.28.26.3.43.3,1.9-.18,3.71-1.21,5.46Z"/>
    <path d="M111.04,106.27c.69,0,1.3,0,1.98.01-1.52,1.83-3.17,3.15-5.41,3.72-1.72.43-3.41,1.13-5.08,1.82-1.27.52-2.52,1.16-3.72,1.86-2.03,1.16-4.04,2.38-6.03,3.63-1.39.87-2.75,1.77-4.09,2.73-1.54,1.12-2.98,2.37-4.24,3.93,1.36.27,2.66.13,3.98-.15,1.5-.32,3.02-.57,4.53-.93.99-.23,1.98-.52,2.96-.84.52-.18,1.28-.45,2.24-.8l-.75,4.92c-2.88.97-5.16,1.61-6.5,1.78-1.66.35-3.32.71-4.99,1.01-1.69.31-3.12-.32-4.33-1.26-1.57-1.22-2.11-4.06-.44-6.18,1.47-1.87,3.25-3.39,5.08-4.86,2.23-1.79,4.62-3.3,7.09-4.66,1.68-.92,3.34-1.87,5.05-2.72,1.49-.74,3.02-1.42,4.56-2.03,1.74-.71,3.51-1.33,5.27-1.97,1.16-.42,1.98-.38,3.27.14-.14.29-.26.53-.43.87Z"/>
    <path d="M151.5,96.06c-.21,1.51-1.19,2.8-2.4,3.86-1.29,1.14-2.56,2.31-3.91,3.39-.83.66-1.8,1.16-2.69,1.75-.26.17-.52.34-.78.52-.86.63-1.87,1.29-3,1.98-.17.11-.34.22-.51.32-.1.06-.2.13-.31.19-.26.16-.53.32-.8.47-.28.16-.55.3-.83.45-5.4,3.06-12.64,6.53-19.82,9.65-.25-.8-.58-1.58-.99-2.33-.31-.57-.67-1.08-1.09-1.53,5.76-2.49,11.91-5.39,17.1-8.39.25-.15.49-.28.72-.41,1.7-.97,3.4-1.94,5.12-2.88,3.32-1.81,6.32-4.14,9.31-6.47.83-.65.79-1.33-.06-1.79-1.47-.79-3.08-1.16-4.82-1.22-2.9-.09-5.8.36-8.7.86-2.09.36-4.15,1.09-6.25,1.52-5,1.03-9.79,3.06-14.63,4.78-2.04.72-4.01,1.74-5.99,2.65-2.03.93-4.06,1.86-6.07,2.84-1.01.5-1.98,1.13-2.98,1.65-.56.29-1.2.44-1.74.77-3.32,2.02-6.71,3.94-9.91,6.16-2.8,1.94-5.38,4.22-8.03,6.39-1.12.92-2.08,2.1-3.27,2.87-.88.57-1.68,1.16-2.41,1.9-.06.06-.17.08-.25.12-.62-.89-.68-1.79-.01-2.84.44-.7.74-1.48,1.08-2.24.65-1.48,1.68-2.62,3.01-3.56,4-2.82,7.96-5.68,11.99-8.47,1.49-1.03,3.08-1.87,4.63-2.79,1.5-.89,2.99-1.84,4.53-2.66,2.11-1.11,4.27-2.08,6.39-3.15,1.47-.74,2.91-1.53,4.37-2.29.21-.11.43-.21.65-.29.55-.21,1.11-.39,1.66-.59,1.89-.71,3.77-1.45,5.67-2.12,3.27-1.15,6.56-2.26,9.84-3.38.17-.06.36-.08.54-.12.81-.16,1.65-.2,2.42-.51,1.42-.58,2.88-.7,4.32-.88,2.65-.34,5.31-.59,7.96-.7,1.73-.07,3.44.17,5.17.26,1.56.08,2.86.68,3.97,1.64,1.34,1.16,2.08,2.73,1.81,4.59Z"/>
    <path d="M156.77,41.49c-.15-1.07-.8-1.9-1.47-2.77-.98-1.26-2.28-1.99-3.67-2.65-.81-.38-1.63-.46-2.55-.03-.6.28-1.24.44-1.85.67-.35.13-.77.21-1.02.45-1.74,1.69-3.07,3.63-3.13,6.01-.03,1.32.21,2.65.56,3.88.26.91.71,1.88,1.4,2.44,1.54,1.23,3.32,2.06,5.52,1.91,1.56-.11,3.01-.48,4.17-1.72,2.28-2.45,2.99-5.17,2.04-8.2ZM149.67,47.65c-.16,0-.29-.23-.52-.42-.04.01-.19.06-.38.11-.02-.2-.03-.34-.05-.5-.15,0-.35.08-.46.02-1.14-.67-1.88-2.74-1.37-4.07.29-.77.74-1.52,1.21-2.23.13-.19.59-.21.89-.28.91-.21,1.69-.21,2.49.37,1.35.98,1.93,1.72,2.06,3.43.18,2.26-1.8,3.69-3.89,3.58Z"/>
  </g>
  <g>
    <path d="M92.97,214.51c-.17.6-.67,1.22-1.5,1.85-.83.63-1.58.98-2.25,1.05-.83.09-1.54-.12-2.12-.64-.58-.52-.87-1.19-.87-2.03,0-.08.02-.29.06-.63.04-.34.06-.55.06-.63l7.61-31.26-1,.11c-3.08,1.58-5.99,3.02-8.73,4.31-2.74,1.3-5.7,2.11-8.86,2.46-1.33.14-2.56,0-3.68-.41-1.12-.42-2.08-1.06-2.87-1.93-.79-.87-1.41-1.88-1.87-3.04-.46-1.15-.69-2.4-.69-3.73,0-2.58.46-5.14,1.37-7.69.91-2.55,2.22-4.88,3.93-6.97,1.7-2.1,3.7-3.85,5.99-5.26,2.29-1.41,4.8-2.27,7.55-2.57,2.16-.23,4.28-.19,6.36.12,2.08.32,3.99,1.09,5.74,2.31l1.12-2.62,5.49-35.77c.17-.68.62-1.42,1.37-2.21.75-.79,1.41-1.21,2-1.28,1.5-.16,2.56.33,3.18,1.46.62,1.14.94,2.37.94,3.7v.5l-6.86,40.41v2.74c.17-.02.31,0,.44.08.12.07.23.06.31-.03.08,0,.27-.13.56-.37.29-.24.62-.5,1-.79l1.12-.87c.37-.29.64-.53.81-.71.08,0,.21-.08.37-.23.17-.14.29-.26.37-.35,5.24-4.39,10.46-8.91,15.65-13.55,5.2-4.64,10.08-9.58,14.66-14.81.58-.64,1.45-1.92,2.62-3.84,1.16-1.91,2.43-3.9,3.8-5.96,1.37-2.06,2.68-3.91,3.93-5.54,1.25-1.63,2.29-2.49,3.12-2.58s1.56.12,2.18.64c.62.51.94,1.23.94,2.14,0,.17-.02.29-.06.38-.04.09-.06.17-.06.26,0,.17-.08.49-.25.96-.17.48-.29.8-.37.98-.25.53-.65,1.25-1.19,2.19-.54.93-1.08,1.84-1.62,2.73-.54.89-1.02,1.67-1.43,2.34-.42.67-.62,1.05-.62,1.13l-15.72,17.55-28.69,24.32c-.33.37-.52.62-.56.75-.04.13-.06.4-.06.82v.62c0,.17.04.29.12.36l23.57,32.99c.17.73.46,1.32.87,1.78.42.45.83.89,1.25,1.3.42.41.77.87,1.06,1.38.29.51.44,1.14.44,1.89,0,.91-.15,1.45-.44,1.61-.29.16-.89.28-1.81.38s-1.79-.06-2.62-.46c-.83-.41-1.62-.97-2.37-1.68-.75-.71-1.39-1.51-1.93-2.41-.54-.9-.94-1.71-1.19-2.43l-21.7-24.71-7.98,29.43ZM72.27,177.59c0,1.5.33,2.81,1,3.95.66,1.13,1.83,1.61,3.49,1.43s3.33-.57,4.99-1.17c1.66-.6,3.28-1.31,4.86-2.15,1.58-.84,3.12-1.75,4.61-2.75,1.5-.99,2.91-1.94,4.24-2.83,0-.17.02-.52.06-1.07.04-.54.06-.86.06-.94,0-1.41-.35-2.64-1.06-3.69-.71-1.05-1.58-1.91-2.62-2.58-1.04-.68-2.2-1.13-3.49-1.37-1.29-.23-2.56-.28-3.8-.15-1.66.18-3.24.64-4.74,1.39-1.5.74-2.81,1.72-3.93,2.92-1.12,1.2-2.02,2.57-2.68,4.09-.67,1.53-1,3.16-1,4.91Z"/>
    <path d="M147.98,187.84c.08-.42.33-1.2.75-2.33.42-1.12.85-2.34,1.31-3.63.46-1.3.89-2.51,1.31-3.63.42-1.12.71-1.9.87-2.34.5-1.38.98-2.31,1.43-2.78.46-.46,1.31-.77,2.56-.9,1.33-.14,2.2.22,2.62,1.09.42.87.62,1.93.62,3.18,0,2.16-.31,4.17-.94,6.03-.62,1.86-1.31,3.72-2.06,5.59-.75,1.87-1.43,3.86-2.06,5.96-.62,2.11-.94,4.49-.94,7.15v1.43c0,.62.04,1.24.12,1.86.08.61.25,1.14.5,1.57.25.43.58.62,1,.58,2.16-.23,4.34-.91,6.55-2.02,2.2-1.11,4.37-2.39,6.49-3.82,2.12-1.43,4.16-2.99,6.11-4.65,1.95-1.67,3.72-3.13,5.3-4.38.58-.48,1.02-.94,1.31-1.39.29-.45.56-.87.81-1.27.25-.4.56-.77.94-1.1.37-.33.98-.54,1.81-.63,1.08-.12,1.97.02,2.68.4.71.38,1.06,1.15,1.06,2.32,0,.5-.02.96-.06,1.38-.04.42-.27.82-.69,1.2-.08.26-.4.63-.94,1.1-.54.48-1.1.97-1.68,1.49-.58.52-1.12.99-1.62,1.42-.5.43-.87.7-1.12.81-.08,0-.31.14-.69.39-.37.25-.6.38-.69.39l-.31.35c-.12.14-.19.25-.19.33-1.75,1.52-3.64,3.08-5.68,4.67-2.04,1.59-4.18,3.07-6.42,4.44-2.25,1.37-4.55,2.55-6.92,3.56-2.37,1.01-4.72,1.63-7.05,1.89-2,.22-3.51-.14-4.55-1.07-1.04-.93-1.81-2.15-2.31-3.68-.5-1.52-.79-3.16-.87-4.89-.08-1.74-.12-3.31-.12-4.73l1.75-11.29ZM153.97,154.39c0-1.5.29-2.53.87-3.09.58-.56,1.62-.92,3.12-1.09.75-.08,1.5-.02,2.25.19.75.21,1.12.86,1.12,1.94s-.52,2.14-1.56,3.16c-1.04,1.03-2.06,1.6-3.06,1.7s-1.71-.13-2.12-.71c-.42-.58-.62-1.28-.62-2.11Z"/>
    <path d="M190.89,206.88l4.24-25.41v-3.49l2.49-16.86c.25-.36.71-.6,1.37-.71.66-.11,1.12-.18,1.37-.21.66-.07,1.43.07,2.31.44.87.36,1.31.92,1.31,1.67v8.48c.33-.29.91-.85,1.75-1.69.83-.84,1.72-1.72,2.68-2.66.96-.93,1.85-1.82,2.68-2.66.83-.84,1.37-1.44,1.62-1.8.91-.93,2.02-1.76,3.31-2.48,1.29-.72,2.51-1.15,3.68-1.27,2.41-.26,4.3.28,5.68,1.63,1.37,1.35,2.06,3.19,2.06,5.51,0,.17-.02.27-.06.32-.04.05-.06.15-.06.32v.5l-4.74,21.84v10.1c2.58-.28,5.26-1.09,8.05-2.43,2.79-1.34,5.47-2.94,8.05-4.8,2.58-1.86,4.99-3.93,7.23-6.21,2.25-2.28,4.2-4.47,5.86-6.56l.5-.05c.58-.06,1.06.07,1.43.41s.56.79.56,1.37c0,1.83-.6,3.7-1.81,5.62-1.21,1.92-2.74,3.77-4.62,5.55-1.87,1.78-4.03,3.51-6.49,5.19-2.45,1.68-4.86,3.15-7.23,4.4-2.37,1.26-4.68,2.3-6.92,3.12-2.25.83-4.16,1.32-5.74,1.5-1.58.17-2.83.02-3.74-.47-.92-.48-1.6-1.18-2.06-2.08-.46-.91-.75-1.93-.87-3.09-.12-1.15-.19-2.39-.19-3.72v-1.62l4.86-24.73v-4.12c-2,.22-3.97,1.3-5.92,3.26-1.95,1.96-3.7,4.27-5.24,6.93-1.54,2.66-2.87,5.34-3.99,8.04-1.12,2.7-1.93,4.91-2.43,6.63-.17.6-.42,1.67-.75,3.2-.33,1.53-.65,3.15-.94,4.84-.29,1.7-.56,3.3-.81,4.83-.25,1.52-.42,2.62-.5,3.3.08.49-.06.88-.44,1.17-.37.29-.81.52-1.31.7-.5.18-1.02.3-1.56.36s-.98.11-1.31.14c-.75.08-1.5.04-2.25-.13-.75-.17-1.12-.75-1.12-1.75v-.37Z"/>
    <path d="M258.24,262.94c-.42-1.2-.77-2.33-1.06-3.38-.29-1.05-.48-2.05-.56-3-.08-.95-.15-1.9-.19-2.85-.04-.95-.06-2.09-.06-3.42v-2.43c0-.54.02-1.04.06-1.5.04-.46.06-.78.06-.94.91-4.17,1.93-8.3,3.06-12.37,1.12-4.07,2.47-8.04,4.05-11.91,1.58-3.87,3.49-7.57,5.74-11.1,2.25-3.53,5.03-6.89,8.36-10.07.08-.42.21-1.27.37-2.54.17-1.27.37-2.58.62-3.93.25-1.36.44-2.65.56-3.86.12-1.22.23-2.12.31-2.72,0-.17-.02-.56-.06-1.18-.04-.62-.06-1.01-.06-1.18l-.37.04c-2.91,1.81-5.7,3.42-8.36,4.84-2.66,1.41-5.57,2.29-8.73,2.63-1.75.19-3.22.06-4.43-.39-1.21-.45-2.18-1.14-2.93-2.05-.75-.92-1.31-2.02-1.68-3.31-.37-1.29-.6-2.72-.69-4.29l2.99-9.43c.75-2.16,1.68-4.49,2.81-6.98,1.12-2.49,2.41-4.9,3.87-7.22,1.45-2.32,3.14-4.48,5.05-6.47,1.91-1.99,4.07-3.5,6.49-4.51,3.24-.85,6.26-1.09,9.04-.73,2.79.36,5.22,1.06,7.3,2.08,2.08,1.02,3.76,2.19,5.05,3.51,1.29,1.32,2.06,2.5,2.31,3.55-.17,1.27-.54,2.62-1.12,4.05-.58,1.44-1.23,2.88-1.93,4.33-.71,1.45-1.41,2.77-2.12,3.97-.71,1.2-1.23,2.19-1.56,2.98-.67,1.57-1.25,3.21-1.75,4.93-.5,1.72-.94,3.47-1.31,5.26-.37,1.79-.67,3.59-.87,5.4-.21,1.81-.31,3.46-.31,4.96v1.87c4.24-2.95,8.81-5.4,13.72-7.35,4.91-1.95,9.77-3.18,14.59-3.7l2.31-.25c.96-.1,1.87-.1,2.74.01.87.11,1.64.4,2.31.87.66.47,1,1.2,1,2.2,0,1.58-.87,2.46-2.62,2.65-.25.03-.83.03-1.75,0-.92-.03-1.54-.1-1.87-.23-.58.15-1.58.42-2.99.82-1.41.4-2.95.86-4.62,1.37-1.66.51-3.2,1.01-4.61,1.5-1.41.49-2.41.8-2.99.95-.25.11-.73.35-1.43.72-.71.37-1.48.76-2.31,1.19-.83.42-1.64.82-2.43,1.2-.79.38-1.31.7-1.56.98-.67.24-1.43.64-2.31,1.19-.87.55-1.73,1.1-2.56,1.65-.83.55-1.56,1.04-2.18,1.48-.62.44-.94.7-.94.79l-1.25,1.88-2.99,31.88c-.25,2.19-.85,4.87-1.81,8.05-.96,3.18-2.23,6.27-3.8,9.27-1.58,3-3.51,5.6-5.8,7.8-2.29,2.2-4.89,3.46-7.8,3.78-.83.09-1.56.06-2.18-.08-.62-.14-1.23-.55-1.81-1.24ZM259.49,183.6c.25.64.6,1.18,1.06,1.63.46.45,1.1.63,1.93.54,3.41-.37,6.46-1.43,9.17-3.18,2.7-1.75,5.09-3.9,7.17-6.45,2.08-2.55,3.89-5.29,5.43-8.2,1.54-2.91,2.85-5.8,3.93-8.66v-.5c-1.33-2.6-2.85-4.2-4.55-4.81-1.71-.6-3.49-.53-5.36.21-1.87.74-3.76,2.03-5.68,3.86-1.91,1.83-3.72,3.86-5.43,6.08-1.71,2.22-3.22,4.53-4.55,6.92-1.33,2.39-2.37,4.56-3.12,6.51-.75,1.95-1.17,3.52-1.25,4.69-.08,1.17.33,1.63,1.25,1.36ZM262.48,250.26c.08.74.19,1.81.31,3.21.12,1.4.39,2.53.81,3.4,1.58-.59,3.03-1.89,4.37-3.9,1.33-2.02,2.45-4.24,3.37-6.66.91-2.43,1.66-4.82,2.25-7.17.58-2.35.96-4.16,1.12-5.42.33-1.95.6-3.79.81-5.51.21-1.73.39-3.37.56-4.93.17-1.56.29-3.09.37-4.59.08-1.51.12-3.13.12-4.88,0-.25-.02-.81-.06-1.68-.04-.87-.06-1.43-.06-1.68-2.25,3.15-4.12,6.31-5.61,9.46-1.5,3.16-2.77,6.35-3.8,9.58-1.04,3.23-1.91,6.57-2.62,10.01-.71,3.44-1.35,7.03-1.93,10.75Z"/>
    <path d="M320.61,177.72c-.67.41-1.37.67-2.12.79-.75.12-1.5.22-2.25.31s-1.5.18-2.25.31c-.75.12-1.5.39-2.25.8-1.41.32-2.33.31-2.74-.01-.42-.33-.54-.83-.37-1.52.17-.68.62-1.48,1.37-2.39.75-.91,1.6-1.71,2.56-2.4.96-.68,2-1.21,3.12-1.59,1.12-.37,2.14-.44,3.06-.21-.42-1.45-.37-2.74.12-3.88.5-1.13,1.5-1.78,2.99-1.95.75-.08,1.43-.09,2.06-.04.62.06,1.1.36,1.43.9,1.25-.88,2.91-2.33,4.99-4.35,2.08-2.01,4.22-4.07,6.42-6.19,2.2-2.11,4.22-3.99,6.05-5.65,1.83-1.65,3.08-2.52,3.74-2.59.25-.03.58-.04,1-.05.42,0,.85.05,1.31.17.46.12.83.26,1.12.44.29.18.44.47.44.89v5.36c-.58,2.39-1.14,4.64-1.68,6.73-.54,2.1-1,4.14-1.37,6.14-.37,2-.65,4-.81,6.01-.17,2.01-.25,4.14-.25,6.39,1.33-.14,2.93-.61,4.8-1.39,1.87-.78,3.76-1.7,5.68-2.74,1.91-1.04,3.7-2.09,5.36-3.14,1.66-1.05,2.99-1.92,3.99-2.62.17-.1.54-.43,1.12-.99.58-.56,1.2-1.15,1.87-1.76.66-.61,1.31-1.18,1.93-1.71.62-.52,1.02-.88,1.19-1.06s.58-.46,1.25-.82c.66-.36,1.04-.59,1.12-.68.33-.12.64-.05.94.21.29.26.56.56.81.91.25.35.44.7.56,1.06.12.36.19.58.19.67,0,.83-.33,1.7-1,2.6-.67.9-1.46,1.76-2.37,2.56-.92.81-1.85,1.57-2.81,2.3-.96.73-1.68,1.37-2.18,1.92-.67.41-1.81,1.07-3.43,1.99-1.62.92-3.35,1.9-5.18,2.93-1.83,1.03-3.56,2.01-5.18,2.93-1.62.92-2.77,1.59-3.43,1.99-.17.1-.54.25-1.12.43-.58.19-1.21.44-1.87.76-.67.32-1.31.58-1.93.77-.62.19-1.02.34-1.19.44-.75.33-1.31.81-1.68,1.43-.37.62-.75,1.25-1.12,1.87-.37.62-.83,1.17-1.37,1.65-.54.47-1.39.69-2.56.65-.08-.07-.44-.22-1.06-.45-.62-.22-1.02-.41-1.19-.56-2-1.2-3.7-2.34-5.11-3.44-1.41-1.09-2.7-2.18-3.87-3.26-1.17-1.08-2.27-2.27-3.31-3.57-1.04-1.3-2.23-2.75-3.55-4.35ZM328.46,171.88c.58,1.18,1.14,2.33,1.68,3.43.54,1.11,1.19,2.14,1.93,3.1.75.96,1.6,1.76,2.56,2.4.96.64,2.14.97,3.56.99.17-1.27.37-2.78.62-4.56s.54-3.63.87-5.58c.33-1.95.73-3.88,1.18-5.8.46-1.92.98-3.62,1.56-5.1l-1.25.14c-1.33,1.06-2.58,2.11-3.74,3.15-1.08.95-2.16,1.88-3.24,2.78-1.08.91-1.95,1.69-2.62,2.34-.08.09-.21.23-.37.41-.17.19-.29.28-.37.29-.08.18-.46.51-1.12.99-.67.49-1.08.82-1.25,1.01ZM342.43,158.89c-.25.03-.37.23-.37.6s.12.55.37.52c.33-.04.5-.24.5-.62s-.17-.54-.5-.51Z"/>
  </g>
  <g>
    <path d="M383.72,147.8l-9.73-45.22c0-.08-.04-.31-.12-.67-.08-.37-.12-.63-.12-.8,0-1,.29-1.84.87-2.53.58-.69,1.33-1.08,2.25-1.18.5-.05,1.12.05,1.87.3.75.25,1.16.62,1.25,1.11l4.37,12.87,8.36,46.62.62,1.18c1-1.77,1.89-3.7,2.68-5.78.79-2.08,1.54-4.18,2.25-6.29.71-2.11,1.37-4.22,2-6.33.62-2.1,1.35-3.99,2.18-5.66.25-.44.87-1.67,1.87-3.7,1-2.02,2.16-4.29,3.49-6.8,1.33-2.51,2.62-5.02,3.87-7.53,1.25-2.51,2.25-4.42,2.99-5.75.75-1.58,1.87-3.49,3.37-5.73,1.5-2.24,3.12-4.41,4.86-6.51,1.75-2.1,3.51-3.94,5.3-5.5,1.79-1.57,3.39-2.43,4.8-2.58.58-.06,1.23.1,1.93.48.71.38,1.06.9,1.06,1.57,0,.17-.02.59-.06,1.25-.04.67-.15,1.39-.31,2.15-.17.77-.4,1.44-.69,2.01-.29.57-.73.89-1.31.95-.17.02-.48-.01-.94-.09-.46-.07-.77-.19-.94-.33-2.66,2.53-5.09,5.27-7.3,8.21-2.2,2.94-4.22,5.97-6.05,9.08-1.83,3.11-3.56,6.31-5.18,9.6-1.62,3.29-3.14,6.51-4.55,9.66-.17.27-.46.97-.87,2.09-.42,1.13-.87,2.34-1.37,3.64-.5,1.3-.94,2.51-1.31,3.63-.37,1.12-.6,1.81-.69,2.07-.08.18-.21.4-.37.66-.17.27-.29.49-.37.66l-7.23,24.48-1.25,12.36c0,.42-.21.77-.62,1.07-.42.29-.92.54-1.5.72-.58.19-1.12.33-1.62.43-.5.09-.92.16-1.25.2-.42.05-.89.03-1.43-.03-.54-.07-.85-.43-.94-1.08l-4.12-37.85v-1.12Z"/>
    <path d="M430.62,157.18c.08-.42.33-1.2.75-2.33.42-1.12.85-2.34,1.31-3.63.46-1.3.89-2.51,1.31-3.63.42-1.12.71-1.9.87-2.34.5-1.38.98-2.31,1.43-2.78.46-.46,1.31-.77,2.56-.9,1.33-.14,2.2.22,2.62,1.09.42.87.62,1.93.62,3.18,0,2.16-.31,4.17-.94,6.03-.62,1.86-1.31,3.72-2.06,5.59-.75,1.87-1.43,3.86-2.06,5.96-.62,2.11-.94,4.49-.94,7.15v1.43c0,.62.04,1.24.12,1.86.08.61.25,1.14.5,1.57.25.43.58.62,1,.58,2.16-.23,4.34-.91,6.55-2.02,2.2-1.11,4.37-2.39,6.49-3.82,2.12-1.43,4.16-2.99,6.11-4.65,1.95-1.67,3.72-3.13,5.3-4.38.58-.48,1.02-.94,1.31-1.39.29-.45.56-.87.81-1.27.25-.4.56-.77.94-1.1.37-.33.98-.54,1.81-.63,1.08-.12,1.97.02,2.68.4.71.38,1.06,1.15,1.06,2.32,0,.5-.02.96-.06,1.38-.04.42-.27.82-.69,1.2-.08.26-.4.63-.94,1.1-.54.48-1.1.97-1.68,1.49-.58.52-1.12.99-1.62,1.42-.5.43-.87.7-1.12.81-.08,0-.31.14-.69.39-.37.25-.6.38-.69.39l-.31.35c-.12.14-.19.25-.19.33-1.75,1.52-3.64,3.08-5.68,4.67-2.04,1.59-4.18,3.07-6.42,4.44-2.25,1.37-4.55,2.55-6.92,3.56-2.37,1.01-4.72,1.63-7.05,1.89-2,.22-3.51-.14-4.55-1.07-1.04-.93-1.81-2.15-2.31-3.68-.5-1.52-.79-3.16-.87-4.89-.08-1.74-.12-3.31-.12-4.73l1.75-11.29ZM436.61,123.72c0-1.5.29-2.53.87-3.09.58-.56,1.62-.92,3.12-1.09.75-.08,1.5-.02,2.25.19.75.21,1.12.86,1.12,1.94s-.52,2.14-1.56,3.16c-1.04,1.03-2.06,1.6-3.06,1.7s-1.71-.13-2.12-.71c-.42-.58-.62-1.28-.62-2.11Z"/>
    <path d="M485,160.38c-.08,0-.19.13-.31.35-.12.22-.27.38-.44.48-1,1.85-1.79,3.65-2.37,5.37-.58,1.73-1.17,3.7-1.75,5.93-.58.9-1.19,1.48-1.81,1.76-.62.28-1.35.46-2.18.55-1.91.21-2.87-.52-2.87-2.18.91-3.76,1.7-6.82,2.37-9.18.66-2.36,1.25-4.38,1.75-6.05.5-1.68.94-3.16,1.31-4.45.37-1.29.77-2.6,1.19-3.93.42-1.33.85-2.9,1.31-4.69.46-1.8,1-4.04,1.62-6.72.62-2.69,1.35-5.99,2.18-9.9.83-3.91,1.83-8.72,2.99-14.42l4.24-10.94c.33-.78.73-1.3,1.19-1.56.46-.26.98-.42,1.56-.48.75-.08,1.45.07,2.12.46.66.39,1.08.99,1.25,1.8v1c0,.5.02,1.02.06,1.55.04.54.06,1.03.06,1.49v1.06c0,4.41-.35,8.23-1.06,11.47-.71,3.24-1.66,6.29-2.87,9.17-1.21,2.87-2.54,5.76-3.99,8.67-1.46,2.9-2.89,6.22-4.3,9.95,2.25-2.82,4.82-5.3,7.73-7.45,2.91-2.14,6.11-3.41,9.6-3.79.33-.04.98-.06,1.93-.08.96-.02,1.6-.05,1.93-.09,1.75.31,3.26,1.1,4.55,2.37,1.29,1.28,2.31,2.76,3.06,4.47.75,1.71,1.29,3.52,1.62,5.44.33,1.92.5,3.67.5,5.25,0,1.66-.17,3.45-.5,5.36-.33,1.91-.75,3.72-1.25,5.44l1.25-.14,18.09-6.7c1.66-.68,3.35-1.74,5.05-3.17,1.7-1.43,3.1-2.75,4.18-3.95l.25-.03c.08,0,.14-.04.19-.08.04-.05.1-.07.19-.08.75-.08,1.35.08,1.81.49.46.41.69.99.69,1.73,0,1.5-.6,2.93-1.81,4.31-1.21,1.38-2.64,2.59-4.3,3.65-1.66,1.05-3.37,1.99-5.11,2.8s-3.12,1.4-4.12,1.76c-.83.34-2.27.89-4.3,1.65-2.04.76-4.22,1.56-6.55,2.39-2.33.84-4.55,1.62-6.67,2.35-2.12.73-3.55,1.22-4.3,1.46-1.25.8-2.41,1.53-3.49,2.19-1.08.66-2.29,1.06-3.62,1.2-1.91.21-4.01-.04-6.3-.75-2.29-.71-4.37-1.73-6.24-3.07-1.87-1.33-3.37-2.98-4.49-4.94-1.12-1.96-1.39-4.13-.81-6.52ZM487.99,158.19c1.25-.14,2.26.27,3.06,1.23.79.96,1.68,2,2.68,3.14,1,1.14,2.26,2.12,3.8,2.95,1.54.83,3.76,1.09,6.67.77l2.62-.28c.75-.83,1.35-1.85,1.81-3.07.46-1.21.79-2.43,1-3.66.21-1.23.31-2.47.31-3.71v-3.49c0-1.16-.12-2.38-.37-3.64-.25-1.26-.67-2.4-1.25-3.42-.58-1.02-1.39-1.8-2.43-2.36-1.04-.55-2.27-.75-3.68-.6-1.66.18-3.39.89-5.18,2.12-1.79,1.23-3.43,2.72-4.93,4.46-1.5,1.74-2.83,3.55-3.99,5.42-1.17,1.87-2,3.54-2.49,5.01.42-.38.81-.61,1.19-.69.37-.08.77-.15,1.19-.19Z"/>
    <path d="M539.51,152.1c.17-.52.44-1.44.81-2.77.37-1.33.75-2.76,1.12-4.3s.71-3.01,1-4.41c.29-1.4.52-2.36.69-2.88.5-2.05,1.1-4.28,1.81-6.68.71-2.4,1.68-4.67,2.93-6.8,1.25-2.13,2.85-3.95,4.8-5.45,1.95-1.5,4.38-2.41,7.3-2.72,1.08-.12,1.85.19,2.31.93.46.74.85,1.55,1.19,2.43,0,.33.02.93.06,1.8.04.87.06,1.47.06,1.8,0,3.58-.35,6.77-1.06,9.59-.71,2.82-1.79,5.48-3.24,7.96-1.46,2.49-3.22,4.86-5.3,7.12-2.08,2.26-4.45,4.66-7.11,7.19-.08.26-.21.69-.37,1.29-.17.6-.25,1.03-.25,1.27v.25c0,1.5.25,2.68.75,3.54.5.86,1.18,1.51,2.06,1.96.87.45,1.87.67,2.99.67,1.12,0,2.35-.07,3.68-.21,3.91-.42,7.65-1.37,11.23-2.84,3.57-1.47,6.86-3.57,9.85-6.31.42-.46.94-1.12,1.56-1.98.62-.86,1.27-1.74,1.93-2.64.66-.9,1.37-1.71,2.12-2.41.75-.7,1.54-1.1,2.37-1.19s1.33.19,1.5.84c.17.65.25,1.3.25,1.97,0,1.83-.56,3.62-1.68,5.36-1.12,1.74-2.58,3.36-4.37,4.84-1.79,1.48-3.83,2.85-6.11,4.09-2.29,1.25-4.55,2.32-6.8,3.23-2.25.91-4.39,1.64-6.42,2.19-2.04.55-3.76.91-5.18,1.06-4.41.48-8.09.15-11.04-.99-2.95-1.13-4.97-3.85-6.05-8.14l.62-8.67ZM557.34,125.59c-1.66,1.68-2.97,3.17-3.93,4.48-.96,1.31-1.71,2.64-2.25,3.99-.54,1.35-1,2.79-1.37,4.33-.37,1.54-.77,3.33-1.19,5.37,1.58-1.42,2.89-2.81,3.93-4.17,1.04-1.36,1.89-2.74,2.56-4.14.66-1.4,1.16-2.89,1.5-4.47.33-1.57.58-3.37.75-5.38Z"/>
    <path d="M602.5,223.1c-.08-.32-.15-.92-.19-1.79-.04-.87-.06-1.51-.06-1.93,0-2,.23-4.08.69-6.25.46-2.17,1.08-4.36,1.87-6.56.79-2.21,1.66-4.34,2.62-6.4.96-2.06,1.97-4.06,3.06-6.01,1.91-3.53,3.82-6.94,5.74-10.23,1.91-3.28,3.93-6.5,6.05-9.64,2.12-3.14,4.34-6.21,6.67-9.21,2.33-3,4.86-6.02,7.61-9.06,0-.08.02-.33.06-.76.04-.42.06-.71.06-.88,0-1.08-.11-2.32-.31-3.71-.21-1.39-.54-2.69-1-3.88-.46-1.2-1.14-2.2-2.06-3.02-.92-.81-2.04-1.15-3.37-1.01-2,.22-3.76.68-5.3,1.39-1.54.71-2.97,1.63-4.3,2.77-1.33,1.14-2.6,2.4-3.8,3.78-1.21,1.38-2.43,2.84-3.68,4.39-.58.31-1.1.52-1.56.61-.46.09-.98.17-1.56.23-1,.11-1.64-.11-1.93-.66-.29-.55-.44-1.28-.44-2.2v-1.12l11.6-24.83c.5-1.13.81-2.29.94-3.47.12-1.18.19-2.31.19-3.39-1.17.13-2.52.5-4.05,1.13-1.54.62-2.6,1.51-3.18,2.65l-18.83,17.26c-.58.23-1.14.56-1.68.99-.54.43-1.04.88-1.5,1.35-.46.47-.94.89-1.43,1.28-.5.39-1.04.61-1.62.67s-1.04-.09-1.37-.47c-.33-.38-.5-.86-.5-1.44,0-1.16.35-2.66,1.06-4.48.71-1.82,1.64-3.17,2.81-4.05.66-.65,1.89-1.72,3.68-3.21,1.79-1.48,3.68-3.04,5.68-4.67,2-1.63,3.89-3.19,5.68-4.67,1.79-1.48,3.06-2.47,3.8-2.97,1.66-1.34,3.72-2.77,6.17-4.29,2.45-1.51,4.84-2.4,7.17-2.65,1.75-.19,3.1.41,4.05,1.81.95,1.39,1.43,2.88,1.43,4.46,0,3.24-.6,6.43-1.81,9.55-1.21,3.12-2.43,6.17-3.68,9.13l.37-.04h.12c.25-.04.73-.15,1.43-.36.71-.2,1.5-.41,2.37-.63s1.66-.45,2.37-.69c.71-.24,1.14-.37,1.31-.39l.5-.05c2.16-.23,3.97,0,5.43.72,1.45.72,2.7,1.68,3.74,2.9,1.04,1.22,1.87,2.69,2.49,4.41.62,1.72,1.23,3.42,1.81,5.1,2.25-2.16,4.07-3.89,5.49-5.21,1.41-1.32,2.6-2.38,3.56-3.19.95-.81,1.81-1.53,2.56-2.15.75-.62,1.64-1.3,2.68-2.04,1.04-.74,2.31-1.7,3.8-2.91,1.5-1.2,3.45-2.85,5.86-4.94.58-.39,1.33-.87,2.25-1.43.91-.56,1.83-.88,2.74-.98.58-.06,1.1.25,1.56.95.46.7.69,1.34.69,1.92,0,.92-.37,1.79-1.12,2.62l-14.59,11.94-14.34,13.16-.5,1.3c-.08.92-.21,2.6-.37,5.03-.17,2.43-.35,4.98-.56,7.67-.21,2.68-.42,5.2-.62,7.55-.21,2.35-.35,4.03-.44,5.04-.17,2.59-.69,5.44-1.56,8.53-.87,3.09-1.98,6.2-3.31,9.34-1.33,3.14-2.93,6.22-4.8,9.25-1.87,3.03-3.95,5.75-6.24,8.16-2.29,2.41-4.8,4.43-7.55,6.06-2.74,1.63-5.66,2.61-8.73,2.94-1.83.2-3.45.02-4.86-.53-1.41-.55-2.41-1.76-2.99-3.6ZM632.81,170.54c-.42.63-1.1,1.62-2.06,2.97-.96,1.35-1.91,2.7-2.87,4.05-.96,1.35-1.83,2.63-2.62,3.84-.79,1.21-1.31,1.95-1.56,2.23-1.66,3.01-3.39,6.02-5.18,9.04-1.79,3.02-3.39,6.11-4.8,9.25-1.41,3.15-2.58,6.33-3.49,9.55-.92,3.22-1.37,6.53-1.37,9.94,3.99-.43,7.36-2.13,10.1-5.09,6.57-6.78,11.16-14.1,13.78-21.95,2.62-7.85,3.93-16.31,3.93-25.37,0-.25-.02-.68-.06-1.3-.04-.62-.06-1.05-.06-1.3l-3.74,4.15Z"/>
  </g>
</svg>